#!OML:ASF H:\Terrain\Patient Classification 1\Walking\liu\liu.ASF
:FULLY-SPECIFIED
:DEGREES
12
root -2.96799 16.8168 -36.3089 3.72504 -1.1682 -2.61114
lowerback 7.43751 2.55674 -1.88879
upperback -3.01544 3.31539 1.25431
thorax -7.53176 1.75002 1.91639
lowerneck -4.49254 -3.86117 -6.81037
upperneck 4.69515 -5.08005 6.4894
head 2.71464 -2.47352 3.15968
rclavicle -1.47489e-014 -9.0447e-015
rhumerus -32.1598 4.04937 -81.2889
rradius 31.8254
rwrist 3.95881
rhand -23.158 -25.6538
rfingers 7.12502
rthumb 3.29051 -55.6082
lclavicle -1.47489e-014 -9.0447e-015
lhumerus -26.6203 -4.92674 89.7453
lradius 25.929
lwrist -29.9284
lhand -28.8039 30.2353
lfingers 7.12502
lthumb -2.1623 60.2041
rfemur -19.701 -1.1412 14.5797
rtibia 40.8396
rfoot -22.4398 0.225799
rtoes -13.8471
lfemur -18.114 -0.616667 -8.29098
ltibia 37.7911
lfoot -17.4888 8.33434
ltoes -23.2871
13
root -2.97077 16.8149 -36.3131 3.67436 -1.18174 -2.65407
lowerback 7.54453 2.54441 -1.83937
upperback -2.99961 3.30324 1.26578
thorax -7.57376 1.74187 1.8984
lowerneck -4.51076 -3.84744 -6.78158
upperneck 4.70982 -5.06226 6.47599
head 2.72 -2.46419 3.1502
rclavicle 7.52159e-014 4.52235e-015
rhumerus -32.1262 3.98379 -81.2555
rradius 31.7328
rwrist 3.97869
rhand -23.3311 -25.296
rfingers 7.12502
rthumb 3.12331 -55.2528
lclavicle 7.52159e-014 4.52235e-015
lhumerus -26.5484 -4.95046 89.7574
lradius 25.876
lwrist -30.0079
lhand -28.8252 30.0874
lfingers 7.12502
lthumb -2.18294 60.056
rfemur -19.695 -1.14249 14.6383
rtibia 40.8878
rfoot -22.2467 0.482599
rtoes -12.5786
lfemur -18.0852 -0.41665 -8.26362
ltibia 37.8049
lfoot -17.547 8.33783
ltoes -23.0575
14
root -2.9734 16.8131 -36.3175 3.64581 -1.18107 -2.61333
lowerback 7.60768 2.53026 -1.87295
upperback -2.98667 3.27875 1.25222
thorax -7.59634 1.73099 1.90415
lowerneck -4.46317 -3.83507 -6.78749
upperneck 4.68704 -5.04979 6.51941
head 2.70443 -2.45768 3.16751
rclavicle -6.3052e-016 3.8266e-015
rhumerus -32.0722 3.91732 -81.2287
rradius 31.6435
rwrist 3.93327
rhand -23.2512 -25.5148
rfingers 7.12502
rthumb 3.20049 -55.4705
lclavicle -6.3052e-016 3.8266e-015
lhumerus -26.503 -5.03963 89.7885
lradius 25.8622
lwrist -30.0051
lhand -28.8241 30.0109
lfingers 7.12502
lthumb -2.18183 59.9795
rfemur -19.7059 -1.17219 14.6037
rtibia 40.9421
rfoot -22.1601 0.652268
rtoes -11.7996
lfemur -18.0755 -0.241669 -8.3209
ltibia 37.8227
lfoot -17.6363 8.29193
ltoes -22.8406
15
root -2.97629 16.8118 -36.3213 3.59445 -1.19513 -2.64467
lowerback 7.67817 2.52372 -1.84191
upperback -2.97683 3.27327 1.26649
thorax -7.62531 1.72713 1.89988
lowerneck -4.35684 -3.83493 -6.80447
upperneck 4.62897 -5.05417 6.54888
head 2.66703 -2.46113 3.18184
rclavicle -2.83687e-014 -7.30534e-015
rhumerus -32.0431 3.81776 -81.1788
rradius 31.5157
rwrist 3.94931
rhand -22.5792 -26.3239
rfingers 7.12502
rthumb 3.84943 -56.2689
lclavicle -2.83687e-014 -7.30534e-015
lhumerus -26.4807 -5.06633 89.8184
lradius 25.8384
lwrist -30.0873
lhand -28.7916 30.0153
lfingers 7.12502
lthumb -2.15049 59.9843
rfemur -19.7029 -1.18238 14.6513
rtibia 40.9823
rfoot -22.1072 0.844749
rtoes -11.2627
lfemur -18.0436 -0.0773012 -8.28783
ltibia 37.861
lfoot -17.7337 8.20472
ltoes -22.5415
16
root -2.97934 16.8091 -36.3255 3.54986 -1.19515 -2.67003
lowerback 7.75756 2.51054 -1.82481
upperback -2.95271 3.25706 1.27892
thorax -7.64428 1.71842 1.90304
lowerneck -4.37793 -3.82614 -6.79513
upperneck 4.63549 -5.0422 6.55208
head 2.67205 -2.45456 3.1815
rclavicle -1.69386e-014 7.00716e-015
rhumerus -32.0216 3.75166 -81.1426
rradius 31.4701
rwrist 3.91248
rhand -22.1528 -26.8463
rfingers 7.12502
rthumb 4.26124 -56.7834
lclavicle -1.69386e-014 7.00716e-015
lhumerus -26.4235 -5.11268 89.8454
lradius 25.8413
lwrist -30.1099
lhand -28.697 30.0108
lfingers 7.12502
lthumb -2.05904 59.9807
rfemur -19.6931 -1.24089 14.6956
rtibia 41.0342
rfoot -22.102 0.93439
rtoes -10.819
lfemur -18.0186 0.132512 -8.26369
ltibia 37.8682
lfoot -17.7732 8.1432
ltoes -22.5896
17
root -2.982 16.8055 -36.3289 3.47858 -1.17088 -2.71912
lowerback 7.83631 2.47958 -1.77252
upperback -2.94792 3.22158 1.29858
thorax -7.68094 1.69908 1.89659
lowerneck -4.23714 -3.80746 -6.82412
upperneck 4.57732 -5.02408 6.60072
head 2.62774 -2.44713 3.20625
rclavicle -1.73937e-015 2.33572e-015
rhumerus -32.0616 3.71141 -81.1274
rradius 31.4177
rwrist 3.86499
rhand -22.0972 -26.6917
rfingers 7.12502
rthumb 4.3149 -56.6277
lclavicle -1.73937e-015 2.33572e-015
lhumerus -26.4449 -5.13801 89.8666
lradius 25.8467
lwrist -30.1219
lhand -28.6793 29.9588
lfingers 7.12502
lthumb -2.04201 59.9288
rfemur -19.6287 -1.30349 14.7575
rtibia 41.0796
rfoot -22.1305 1.01403
rtoes -10.5903
lfemur -17.996 0.309313 -8.2053
ltibia 37.9228
lfoot -17.8925 7.97879
ltoes -22.3093
18
root -2.98863 16.8044 -36.3215 3.34195 -1.1411 -2.5988
lowerback 7.88219 2.49909 -1.8992
upperback -2.87175 3.23046 1.26821
thorax -7.632 1.70753 1.93405
lowerneck -4.26728 -3.79918 -7.04047
upperneck 4.56226 -5.01128 6.8472
head 2.64582 -2.43787 3.33413
rclavicle 4.73123e-015 3.926e-015
rhumerus -32.0482 3.53213 -81.0731
rradius 31.315
rwrist 3.78989
rhand -23.167 -26.7214
rfingers 7.12502
rthumb 3.28178 -56.6759
lclavicle 4.73123e-015 3.926e-015
lhumerus -26.4505 -5.37836 89.9481
lradius 25.9018
lwrist -29.9625
lhand -28.8078 29.6891
lfingers 7.12502
lthumb -2.16613 59.6579
rfemur -19.4642 -1.45085 14.6362
rtibia 41.1389
rfoot -22.2243 1.15902
rtoes -10.0981
lfemur -17.8444 0.511497 -8.33593
ltibia 37.9577
lfoot -18.0429 7.86201
ltoes -22.1198
19
root -2.98643 16.7991 -36.3356 3.35069 -1.15379 -2.75175
lowerback 7.97362 2.43861 -1.73824
upperback -2.87679 3.17016 1.32717
thorax -7.68114 1.67207 1.9112
lowerneck -4.21768 -3.79707 -6.82978
upperneck 4.52446 -5.00795 6.58738
head 2.60471 -2.43987 3.20345
rclavicle 3.04933e-014 1.94312e-014
rhumerus -31.9124 3.54877 -81.0425
rradius 31.215
rwrist 3.85777
rhand -22.906 -26.8768
rfingers 7.12502
rthumb 3.5339 -56.8273
lclavicle 3.04933e-014 1.94312e-014
lhumerus -26.3434 -5.19691 89.9278
lradius 25.8722
lwrist -30.0401
lhand -28.6816 29.9061
lfingers 7.12502
lthumb -2.04418 59.876
rfemur -19.5761 -1.57032 14.8045
rtibia 41.1993
rfoot -22.2044 1.29839
rtoes -9.83026
lfemur -17.9621 0.711812 -8.17724
ltibia 38.0332
lfoot -18.0468 7.76348
ltoes -21.9696
20
root -2.98843 16.7955 -36.339 3.26704 -1.1527 -2.77923
lowerback 8.09149 2.42672 -1.71098
upperback -2.86645 3.15687 1.34291
thorax -7.73696 1.66467 1.91007
lowerneck -4.15704 -3.78745 -6.83815
upperneck 4.4997 -4.99735 6.59204
head 2.58471 -2.43563 3.20777
rclavicle -3.19282e-014 -5.36719e-015
rhumerus -31.9496 3.5209 -81.0091
rradius 31.1886
rwrist 3.78603
rhand -21.8903 -26.8885
rfingers 7.12502
rthumb 4.51471 -56.8204
lclavicle -3.19282e-014 -5.36719e-015
lhumerus -26.3817 -5.20527 89.9611
lradius 25.9142
lwrist -30.0196
lhand -28.7052 29.8262
lfingers 7.12502
lthumb -2.06702 59.7959
rfemur -19.5289 -1.71294 14.8373
rtibia 41.2769
rfoot -22.2595 1.42647
rtoes -9.55424
lfemur -17.9219 0.907121 -8.15128
ltibia 38.0791
lfoot -18.0977 7.64924
ltoes -21.812
21
root -2.98948 16.7929 -36.3416 3.1769 -1.14186 -2.75978
lowerback 8.19749 2.41079 -1.72323
upperback -2.80125 3.13266 1.34798
thorax -7.72808 1.65265 1.92318
lowerneck -4.27895 -3.79987 -6.82507
upperneck 4.51495 -5.00649 6.56201
head 2.61164 -2.43869 3.19302
rclavicle 9.80335e-015 1.02374e-014
rhumerus -31.8634 3.50087 -80.9775
rradius 31.1308
rwrist 3.73253
rhand -21.9468 -27.2822
rfingers 7.12502
rthumb 4.46014 -57.2152
lclavicle 9.80335e-015 1.02374e-014
lhumerus -26.3197 -5.24065 89.9952
lradius 25.9749
lwrist -29.942
lhand -28.7244 29.9449
lfingers 7.12502
lthumb -2.08555 59.9145
rfemur -19.4842 -1.88631 14.8145
rtibia 41.3508
rfoot -22.3103 1.57792
rtoes -9.40411
lfemur -17.8812 1.05532 -8.18147
ltibia 38.1653
lfoot -18.1656 7.5461
ltoes -21.6627
22
root -2.99087 16.7892 -36.3457 3.08726 -1.13763 -2.70562
lowerback 8.33006 2.39345 -1.78589
upperback -2.7757 3.10081 1.35234
thorax -7.77963 1.64006 1.96321
lowerneck -4.31862 -3.78437 -6.83554
upperneck 4.54127 -4.9826 6.54327
head 2.62577 -2.42685 3.18922
rclavicle 3.91202e-015 -1.45858e-014
rhumerus -31.8406 3.52262 -80.9552
rradius 31.0939
rwrist 3.68019
rhand -22.7264 -26.9551
rfingers 7.12502
rthumb 3.70732 -56.9026
lclavicle 3.91202e-015 -1.45858e-014
lhumerus -26.3073 -5.24476 90.0356
lradius 26.0047
lwrist -29.8541
lhand -28.7789 29.8711
lfingers 7.12502
lthumb -2.13817 59.8402
rfemur -19.4491 -2.081 14.7544
rtibia 41.4305
rfoot -22.3513 1.72406
rtoes -9.27905
lfemur -17.8393 1.16277 -8.24211
ltibia 38.2255
lfoot -18.2005 7.42299
ltoes -21.4816
23
root -2.99037 16.7851 -36.3499 2.96242 -1.13515 -2.72346
lowerback 8.51399 2.37352 -1.73979
upperback -2.75114 3.07767 1.36338
thorax -7.85649 1.62667 1.94608
lowerneck -4.30496 -3.77455 -6.83063
upperneck 4.52905 -4.96863 6.51915
head 2.61686 -2.42067 3.18062
rclavicle 3.83817e-014 -1.34677e-014
rhumerus -31.8707 3.56873 -80.9372
rradius 31.0813
rwrist 3.62424
rhand -22.8152 -26.7511
rfingers 7.12502
rthumb 3.62152 -56.7
lclavicle 3.83817e-014 -1.34677e-014
lhumerus -26.3194 -5.20814 90.0583
lradius 26.0361
lwrist -29.8312
lhand -28.7861 29.9926
lfingers 7.12502
lthumb -2.14516 59.9616
rfemur -19.3683 -2.26043 14.771
rtibia 41.5092
rfoot -22.4081 1.76759
rtoes -9.44929
lfemur -17.7576 1.26848 -8.23
ltibia 38.2914
lfoot -18.2159 7.32859
ltoes -21.3522
24
root -2.99097 16.7807 -36.3546 2.82195 -1.16135 -2.74456
lowerback 8.71107 2.37269 -1.71706
upperback -2.73268 3.07778 1.37858
thorax -7.9504 1.62602 1.94228
lowerneck -4.23247 -3.77708 -6.81078
upperneck 4.50378 -4.97468 6.48693
head 2.59316 -2.42533 3.16608
rclavicle -1.21453e-014 -6.93262e-015
rhumerus -31.9097 3.56137 -80.9144
rradius 31.0418
rwrist 3.60955
rhand -22.3838 -27.0328
rfingers 7.12502
rthumb 4.03812 -56.9742
lclavicle -1.21453e-014 -6.93262e-015
lhumerus -26.3492 -5.20084 90.086
lradius 26.0702
lwrist -29.7674
lhand -28.8071 29.9456
lfingers 7.12502
lthumb -2.1654 59.9143
rfemur -19.28 -2.35825 14.7986
rtibia 41.5975
rfoot -22.4802 1.79342
rtoes -9.46464
lfemur -17.6539 1.40199 -8.20721
ltibia 38.3558
lfoot -18.2612 7.22053
ltoes -21.147
